<svg xmlns="http://www.w3.org/2000/svg" xmlns:xlink="http://www.w3.org/1999/xlink" version="1.1" x="0px" y="0px" viewBox="0 0 100 125" enable-background="new 0 0 100 100" xml:space="preserve"><g><path d="M83,41.6c-0.8-0.5-1-0.9-1-0.9c0-0.1,0.2-0.4,1-0.7c9-4.4,14.1-9.7,14.1-14.6c0-2.7-1.1-5.9-6.2-5.9c-1.1,0-2.4,0.1-4,0.4   c-1.8,0.3-3.7-0.8-4.6-2.7C78.6,9.7,71,4.9,62.8,4.9l-0.3,0c-11.9,0.1-21.4,9.9-21.3,21.8c0.1,5.5,2.2,10.8,6.1,14.7   c0.7,0.7,0.9,1.2,0.8,1.4c0,0.1-0.3,0.4-1,0.5c-4.4,1.1-8.6,1.4-12.9,1c-9.2-1-12.3-5.8-14.1-8.6c-0.9-1.5-1.7-2.7-3.1-2.7   c-0.5,0-1,0.2-1.5,0.6C5.5,41.5,3,59.8,10.1,73.6c7.1,13.8,23.2,21.3,45.5,21.3c4,0,8.1-0.2,12.2-0.7c16.5-1.9,28.4-14.1,28.2-29   C95.8,55.6,91,46.8,83,41.6z M81.7,37.4c-0.3,0.2-0.6,0.3-0.9,0.5c-0.5-1.4-0.7-2.8-0.9-4.1c6-0.7,11-4.1,13.9-6.5   C92.6,30.5,88.3,34.2,81.7,37.4z M87.3,22.5c1.5-0.3,2.6-0.4,3.6-0.4c1.7,0,2.6,0.4,3,1.3c-1.7,1.7-7.1,6.6-14,7.5   c0.2-4.2,1.6-7.7,2.5-9.6C83.8,22.4,85.6,22.8,87.3,22.5z M67.5,91.4c-4,0.5-8,0.7-11.9,0.7c-12.2,0-34.1-2.6-43-19.8   c-6.4-12.5-4.4-29,4.5-36.2c0.2,0.3,0.5,0.8,0.8,1.2c1.9,3.1,5.5,8.8,16.1,9.9c4.6,0.5,9.1,0.1,13.9-1c2.2-0.5,2.8-1.8,3-2.5   c0.4-1.3-0.1-2.8-1.5-4.1c-3.4-3.4-5.2-8-5.3-12.8C44,16.4,52.3,7.9,62.6,7.7l0.2,0c7.1,0,13.8,4.2,16.9,10.6   c0.2,0.4,0.4,0.7,0.6,1c-1.5,2.9-5.8,12.4-1,22c0.2,0.8,0.8,1.7,2.1,2.5c7.2,4.7,11.6,12.7,11.7,21.3   C93.3,78.9,82.8,89.6,67.5,91.4z"/><circle cx="71.4" cy="20.9" r="2.8"/></g><text x="0" y="115" fill="#000000" font-size="5px" font-weight="bold" font-family="'Helvetica Neue', Helvetica, Arial-Unicode, Arial, Sans-serif">Created by iconic</text><text x="0" y="120" fill="#000000" font-size="5px" font-weight="bold" font-family="'Helvetica Neue', Helvetica, Arial-Unicode, Arial, Sans-serif">from the Noun Project</text></svg>